<svg width="46" height="44" viewBox="0 0 46 44" fill="none" xmlns="http://www.w3.org/2000/svg">
<ellipse cx="22.5201" cy="21.9375" rx="22.5201" ry="21.875" fill="#3A6DD0"/>
<path d="M17.3591 20.1143C17.1499 20.1143 16.9491 20.1452 16.7492 20.1735C16.814 19.962 16.8806 19.7469 16.9876 19.5537C17.0945 19.273 17.2616 19.0296 17.4276 18.7844C17.5665 18.5192 17.8114 18.3396 17.9916 18.1127C18.1802 17.8921 18.4373 17.7454 18.6409 17.5622C18.8408 17.3708 19.1026 17.2751 19.3109 17.1402C19.5286 17.0189 19.7181 16.885 19.9208 16.8212L20.4266 16.6188L20.8713 16.4393L20.4163 14.6729L19.8561 14.8041C19.6768 14.8479 19.4582 14.8989 19.2096 14.96C18.9553 15.0055 18.6841 15.1304 18.3819 15.2443C18.0835 15.3738 17.7382 15.4613 17.4173 15.6691C17.0945 15.8678 16.722 16.0337 16.3936 16.2998C16.0755 16.5742 15.6917 16.812 15.4083 17.1611C15.0987 17.4874 14.7928 17.8301 14.5554 18.2202C14.2805 18.5921 14.0937 19.0005 13.8967 19.4042C13.7184 19.808 13.5748 20.2209 13.4575 20.6219C13.2352 21.4258 13.1357 22.1896 13.0972 22.8432C13.0653 23.4976 13.0841 24.0417 13.1235 24.4355C13.1376 24.6214 13.1638 24.8019 13.1826 24.9268L13.2061 25.0799L13.2305 25.0744C13.3974 25.8317 13.7816 26.5276 14.3386 27.0816C14.8957 27.6356 15.6028 28.0252 16.3782 28.2051C17.1537 28.3851 17.9657 28.3481 18.7204 28.0985C19.4752 27.8489 20.1417 27.3968 20.643 26.7946C21.1442 26.1924 21.4597 25.4646 21.553 24.6955C21.6462 23.9264 21.5134 23.1474 21.1699 22.4485C20.8263 21.7497 20.2861 21.1596 19.6118 20.7465C18.9374 20.3334 18.1564 20.1142 17.3591 20.1143ZM27.6809 20.1143C27.4716 20.1143 27.2708 20.1452 27.0709 20.1735C27.1357 19.962 27.2023 19.7469 27.3093 19.5537C27.4163 19.273 27.5833 19.0296 27.7494 18.7844C27.8882 18.5192 28.1331 18.3396 28.3133 18.1127C28.5019 17.8921 28.759 17.7454 28.9626 17.5622C29.1625 17.3708 29.4243 17.2751 29.6326 17.1402C29.8503 17.0189 30.0398 16.885 30.2425 16.8212L30.7483 16.6188L31.1931 16.4393L30.738 14.6729L30.1778 14.8041C29.9986 14.8479 29.7799 14.8989 29.5313 14.96C29.277 15.0055 29.0058 15.1304 28.7037 15.2443C28.4062 15.3747 28.06 15.4613 27.739 15.67C27.4163 15.8687 27.0437 16.0346 26.7153 16.3007C26.3972 16.5751 26.0134 16.813 25.7301 17.1611C25.4204 17.4874 25.1145 17.8301 24.8771 18.2202C24.6022 18.5921 24.4154 19.0005 24.2184 19.4042C24.0401 19.808 23.8965 20.2209 23.7793 20.6219C23.5569 21.4258 23.4574 22.1896 23.4189 22.8432C23.387 23.4976 23.4058 24.0417 23.4452 24.4355C23.4593 24.6214 23.4856 24.8019 23.5043 24.9268L23.5278 25.0799L23.5522 25.0744C23.7191 25.8317 24.1033 26.5276 24.6603 27.0816C25.2174 27.6356 25.9245 28.0252 26.7 28.2051C27.4754 28.3851 28.2874 28.3481 29.0422 28.0985C29.7969 27.8489 30.4634 27.3968 30.9647 26.7946C31.4659 26.1924 31.7814 25.4646 31.8747 24.6955C31.9679 23.9264 31.8351 23.1474 31.4916 22.4485C31.148 21.7497 30.6079 21.1596 29.9335 20.7465C29.2591 20.3334 28.4781 20.1142 27.6809 20.1143Z" fill="white"/>
</svg>
